<svg width="3158" height="1093" viewBox="0 0 3158 1093" fill="none" xmlns="http://www.w3.org/2000/svg">
<path d="M66.3551 2.34053C53.1261 5.80527 42.7318 11.9998 32.0226 22.814C21.4184 33.4182 15.9588 41.9226 11.8641 54.3117C9.13432 62.5011 9.02933 63.446 8.39938 95.7836L7.87442 128.856L3.98971 129.171L0 129.486V158.884V188.177H4.19969H8.39938V206.55V224.924H4.72465H1.04992V270.071V315.217H4.72465H8.39938V322.567V329.916H4.19969H0V375.063V420.21H4.19969H8.39938L8.60936 703.899C8.92434 971.524 9.02933 988.008 10.8142 993.992C18.3736 1019.93 39.4771 1041.03 65.6202 1048.69C71.3947 1050.48 79.8991 1050.58 174.497 1050.9L277.18 1051.32L277.389 1072.21L277.704 1093L303.848 1078.41C319.911 1069.38 330.411 1064.13 331.146 1064.65C331.775 1065.18 338.705 1070.74 346.474 1077.04C354.244 1083.45 361.803 1089.43 363.273 1090.38C365.688 1092.06 378.602 1092.16 546.695 1092.16H727.596V846.478V600.796H685.599H643.602V582.003C643.602 562.369 642.448 546.83 639.928 533.601C629.953 480.37 596.671 439.318 554.884 428.609C546.275 426.404 528.321 425.564 520.447 427.034L516.562 427.769V368.868V309.968H520.762H524.961V270.176V230.279L521.076 229.964L517.087 229.649L516.562 145.655C516.037 67.9607 515.827 61.2412 514.042 55.8866C506.798 33.9432 488.949 14.3096 468.58 5.70028C455.141 0.0306971 465.011 0.240682 261.956 0.345674C80.634 0.345674 73.7046 0.450666 66.3551 2.34053ZM454.091 19.6642C464.066 22.2891 472.255 27.3287 480.969 35.938C486.324 41.2927 489.999 46.1223 492.204 50.742C499.133 64.9159 498.713 52.0019 498.713 248.232C498.713 349.445 498.293 426.509 497.768 426.509C497.243 426.509 495.353 426.194 493.569 425.879L490.314 425.249L490.104 275.95L489.789 126.756L262.796 126.441L35.6974 126.231V525.202V924.172H156.438H277.18V934.252C277.18 943.491 276.97 944.331 275.395 943.596C271.405 942.021 262.166 941.391 256.181 942.231C241.272 944.226 228.043 956.195 223.738 971.734C221.639 979.293 222.584 992.732 225.838 999.137C231.193 1009.95 241.797 1018.77 253.346 1021.82C258.281 1023.18 271.615 1022.87 275.395 1021.29C276.97 1020.66 277.18 1021.29 277.18 1026.96V1033.36H179.642C98.5877 1033.36 80.739 1033.15 74.1245 1031.79C56.8008 1028.53 40.422 1015.83 32.6526 999.452C30.3428 994.727 28.0329 988.008 27.403 984.648C26.563 980.238 26.2481 842.279 26.2481 525.307C26.2481 136.101 26.458 71.1104 27.8229 65.0209C32.1276 44.6524 50.5013 25.1238 70.4498 19.7692C79.2691 17.3544 444.957 17.3544 454.091 19.6642ZM471.415 286.66V428.189L466.271 429.554C452.622 433.019 437.398 442.468 424.064 455.802C408.945 470.816 398.131 488.56 391.096 509.768C384.167 530.767 382.172 545.675 382.172 577.383V600.796H329.676H277.18V753.56V906.324H165.363H53.546V525.727V145.13H262.481H471.415V286.66ZM556.774 447.613C567.063 450.972 577.247 457.587 587.012 467.351C601.501 481.84 610.845 497.799 617.774 519.952C623.234 537.486 624.704 548.615 625.439 576.333L626.069 600.796H612.735H599.506V580.428C599.506 548.51 597.196 531.081 590.371 510.608C583.127 488.875 571.998 470.396 557.089 455.277C551.734 449.817 548.059 445.408 548.794 445.408C549.529 445.408 553.204 446.353 556.774 447.613ZM465.956 458.952C449.367 476.8 437.188 501.054 431.098 528.562C427.528 544.625 426.268 558.484 426.268 581.478V600.796H413.039H399.81L400.335 573.183C400.965 543.261 401.91 535.701 407.475 518.167C417.974 484.99 439.183 459.267 464.066 449.293L470.89 446.563L471.205 449.712C471.52 452.232 470.575 453.912 465.956 458.952ZM527.586 454.542C544.49 464.411 561.184 484.78 570.003 506.408C578.402 527.092 580.607 540.426 581.342 574.233L581.972 600.796H549.214H516.562V525.202C516.562 464.726 516.877 449.608 517.927 449.608C518.662 449.608 522.966 451.812 527.586 454.542ZM498.713 527.827V600.796H494.513H490.314V530.452V460.212L494.198 457.482C496.403 456.012 498.293 454.857 498.398 454.857C498.608 454.857 498.713 487.72 498.713 527.827ZM471.415 540.426V600.796H457.661H443.802L444.432 575.808C444.747 560.479 445.587 547.145 446.637 540.951C448.632 529.297 453.566 512.813 457.871 503.154C460.706 496.959 470.365 480.055 471.1 480.055C471.31 480.055 471.415 507.248 471.415 540.426ZM365.373 844.063C365.373 1058.56 365.268 1069.27 363.588 1067.8C362.538 1066.96 355.084 1060.87 346.999 1054.26L332.3 1042.18L314.977 1051.95C305.422 1057.3 297.023 1061.71 296.183 1061.71C295.028 1061.71 294.818 1060.14 295.448 1053.63C295.763 1049.22 296.078 949.581 296.078 832.094V618.645H330.726H365.373V844.063ZM625.544 640.903L625.754 662.637L622.709 664.212C618.404 666.521 612.63 673.556 611.265 678.386C605.49 697.599 621.029 715.448 639.613 710.933C646.962 709.253 655.152 701.274 657.146 693.924C660.086 683.635 655.992 671.771 647.802 666.102L643.707 663.267L643.602 640.903V618.645H676.675H709.748V845.953V1073.26H547.01H384.272V846.478V619.695H405.27H426.268V641.638V663.687L420.704 669.251C414.194 675.761 411.99 681.745 412.934 690.04C414.509 703.164 424.379 712.088 437.188 712.088C461.126 711.983 469.84 679.016 449.367 665.787L444.117 662.427V641.113V619.695L467.005 619.38C479.5 619.275 520.237 619.17 557.509 619.17H625.229L625.544 640.903ZM638.353 681.64C641.188 684.475 640.978 688.57 637.828 691.615C634.783 694.764 634.153 694.869 630.583 692.035C625.754 688.255 628.169 679.541 634.153 679.541C635.308 679.541 637.198 680.485 638.353 681.64ZM441.177 682.375C445.062 685.84 442.332 694.239 437.188 694.239C434.038 694.239 430.468 690.775 430.468 687.625C430.468 681.64 436.873 678.491 441.177 682.375ZM274.765 962.495C277.18 964.07 277.18 964.489 277.18 982.338V1000.61L272.035 1002.81C262.376 1006.91 252.611 1004.91 245.997 997.352C241.692 992.417 240.117 987.273 240.642 979.818C241.587 966.484 253.766 957.56 267.625 960.08C270.25 960.5 273.4 961.655 274.765 962.495Z" fill="white"/>
<path d="M185.311 63.1308C179.852 66.3856 178.172 69.1154 178.172 74.155C178.172 79.6146 180.377 83.4993 185.101 86.3341C193.816 91.6887 206.835 85.0742 206.835 75.3099C206.835 64.6007 194.236 57.5662 185.311 63.1308Z" fill="white"/>
<path d="M228.251 66.3855C224.681 67.7504 221.531 72.58 221.531 76.5697C221.531 79.2995 222.371 80.9794 224.786 83.2892L228.041 86.334H262.688H297.336L300.38 83.2892C306.365 77.3047 303.32 67.6454 294.921 65.9655C289.986 65.0206 230.771 65.3355 228.251 66.3855Z" fill="white"/>
<path d="M986.716 325.821C960.258 328.866 935.585 340.415 918.051 357.949C901.357 374.538 890.648 396.691 887.183 421.784C885.503 434.068 886.343 666.311 888.128 674.291C895.163 705.578 909.337 727.627 932.645 743.481C941.464 749.465 957.213 756.29 969.917 759.439C992.596 765.319 1021.36 764.794 1040.68 758.179C1076.38 746.105 1099.48 715.133 1105.99 670.826C1106.93 664.736 1107.67 655.707 1107.67 650.667C1107.67 641.848 1107.56 641.428 1104.41 638.488C1098.95 633.344 1091.5 631.769 1073.54 631.769C1054.96 631.769 1047.51 633.449 1041.84 639.118C1038.58 642.373 1038.37 643.003 1038.37 650.352C1038.37 679.435 1027.14 692.139 1001.31 692.454C976.742 692.769 963.513 681.535 958.998 656.652C956.898 644.473 956.898 440.683 959.103 430.394C962.043 416.43 970.442 404.881 981.046 400.051C985.771 397.951 988.081 397.636 1000.05 397.636C1012.12 397.636 1014.33 397.951 1019.16 400.156C1026.61 403.411 1033.54 411.075 1035.75 418.215C1036.69 421.364 1037.74 429.029 1038.06 435.328C1038.69 445.933 1038.9 446.982 1041.63 450.027C1044.99 453.912 1051.81 456.327 1064.1 458.112C1079.11 460.211 1099.9 456.222 1105.57 450.132C1107.88 447.612 1107.98 447.192 1107.35 434.173C1105.57 394.276 1091.92 363.199 1068.4 345.14C1053.81 334.011 1036.69 327.711 1015.38 325.716C1002.78 324.561 998.16 324.561 986.716 325.821Z" fill="white"/>
<path d="M1260.85 325.717C1238.8 328.237 1219.7 335.901 1205.73 347.66C1186.1 364.144 1173.6 390.497 1171.71 419.685C1170.45 437.953 1170.45 543.471 1171.71 620.325L1172.76 682.48L1176.33 693.505C1186.1 723.322 1202.69 743.061 1227.78 754.61C1242.27 761.33 1249.51 762.694 1275.13 763.219C1301.48 763.849 1311.25 762.694 1326.58 757.13C1343.59 750.935 1361.23 736.866 1370.99 721.643C1375.92 713.873 1380.86 702.954 1384.22 692.245C1386.95 683.635 1387.05 682.69 1388 639.749C1388.52 615.705 1389.05 555.545 1389.05 506.093C1389.05 407.821 1389.26 411.075 1382.75 391.757C1370.88 356.164 1347.79 335.376 1311.88 327.712C1300.85 325.402 1273.14 324.247 1260.85 325.717ZM1294.24 399.421C1306.31 403.831 1315.34 416.22 1318.18 432.389C1320.49 445.093 1320.49 642.793 1318.18 655.707C1315.13 673.031 1307.78 683.95 1295.29 689.62C1289.73 692.14 1287.42 692.56 1279.86 692.56C1272.3 692.56 1269.99 692.14 1264.42 689.62C1256.65 686.05 1249.3 678.701 1246.15 671.456C1240.27 657.807 1240.48 661.902 1240.48 544.101C1240.48 426.929 1240.38 430.394 1246.05 418.11C1254.45 400.051 1274.61 392.177 1294.24 399.421Z" fill="white"/>
<path d="M1481.65 325.927C1475.14 329.077 1471.46 341.466 1471.57 360.364C1471.57 376.743 1473.56 385.773 1478.6 391.547L1481.65 395.012H1538.76C1570.16 395.012 1595.88 395.222 1595.88 395.537C1595.88 395.852 1564.38 466.827 1525.85 553.34C1487.42 639.749 1454.98 713.348 1453.93 716.813C1448.26 734.347 1455.93 751.671 1472.93 759.755L1479.86 763.01L1569.53 763.325L1659.19 763.64L1661.6 761.33C1671.26 752.195 1673.15 717.023 1664.86 700.854C1661.19 693.925 1664.12 694.24 1602.39 694.24C1549.47 694.24 1546.32 694.135 1546.85 692.35C1547.06 691.405 1578.56 620.22 1616.77 534.232C1654.99 448.243 1686.91 375.798 1687.85 373.069C1690.16 366.559 1690.16 355.85 1687.85 349.025C1683.97 337.476 1671.58 328.027 1657.09 325.717C1648.17 324.247 1484.69 324.457 1481.65 325.927Z" fill="white"/>
<path d="M2135.55 325.297C2112.55 329.181 2097.43 335.586 2083.89 347.135C2061.21 366.454 2049.45 396.167 2049.45 434.174C2049.45 450.133 2050.92 459.267 2055.86 474.281C2066.36 505.673 2082 526.777 2125.05 567.094C2159.48 599.432 2170.93 612.346 2179.33 628.619C2185 639.644 2186.99 646.783 2186.99 656.022C2186.99 664.737 2184.26 673.451 2179.96 678.596C2176.07 683.11 2166.2 689.62 2159.8 691.72C2153.18 693.82 2144.99 693.295 2139.11 690.25C2130.61 685.945 2120.85 672.611 2119.27 663.162C2117.91 655.077 2116.54 652.348 2112.87 650.038C2101.11 642.793 2071.71 641.953 2057.12 648.568C2049.14 652.138 2047.98 654.552 2048.82 665.682C2050.08 681.43 2051.55 688.15 2055.96 698.229C2066.04 721.328 2082.1 738.966 2104.57 751.46C2123.16 761.96 2151.08 766.159 2171.98 761.855C2186.05 759.02 2203.69 751.04 2215.44 742.431C2247.05 719.123 2263.01 680.171 2256.81 641.218C2252.3 612.451 2242.32 590.507 2221.74 564.049C2213.97 554.075 2197.07 536.751 2167.78 509.033C2145.83 488.14 2136.39 477.011 2129.04 463.572C2122.21 450.973 2119.48 440.158 2120.01 428.504C2120.85 409.816 2130.61 399.001 2149.3 395.957C2163.26 393.542 2176.39 398.161 2180.59 406.876C2181.85 409.396 2182.79 412.44 2182.79 413.595C2182.79 417.165 2187.94 421.155 2195.81 423.675C2202.11 425.669 2205.58 425.984 2218.49 425.984C2234.55 425.879 2241.59 424.514 2248.73 420.21C2253.45 417.375 2254.19 414.75 2253.03 404.776C2249.46 373.068 2228.25 344.195 2199.59 332.016C2186.68 326.557 2180.38 325.507 2158.64 325.192C2147.41 324.982 2137.02 324.982 2135.55 325.297Z" fill="white"/>
<path d="M2723.39 325.822C2701.87 328.027 2682.23 335.796 2668.38 347.45C2649.37 363.514 2636.56 389.762 2634.25 417.585C2632.99 432.599 2632.99 554.075 2634.25 626.309L2635.3 682.795L2638.98 693.924C2643.81 708.413 2649.48 719.123 2657.77 729.412C2669.32 744.006 2685.7 754.61 2704.6 759.965C2713.63 762.484 2716.67 762.799 2737.67 763.219C2755.73 763.639 2762.87 763.429 2770.32 762.064C2796.57 757.55 2818.3 743.901 2832.37 723.112C2838.46 713.978 2841.82 706.944 2845.92 694.449L2849.49 683.425L2850.64 629.774C2851.17 600.271 2851.59 539.061 2851.38 493.704L2851.06 411.285L2848.23 400.996C2842.24 379.473 2835 366.034 2822.19 353.015C2805.92 336.426 2788.17 328.656 2760.35 325.822C2748.17 324.562 2735.26 324.562 2723.39 325.822ZM2756.78 399.421C2767.59 403.411 2776.1 413.7 2779.88 427.664C2781.66 433.859 2781.77 442.468 2781.77 543.576C2781.77 625.155 2781.45 654.132 2780.51 658.122C2776.62 674.396 2769.59 684.265 2757.93 689.62C2752.26 692.14 2749.95 692.56 2742.4 692.56C2734.84 692.56 2732.53 692.14 2726.86 689.62C2718.67 685.84 2710.9 677.651 2707.96 669.776C2702.92 656.442 2703.02 658.227 2703.02 543.051C2703.02 440.998 2703.13 433.964 2704.91 427.664C2707.43 418.635 2710.16 413.595 2715.31 408.031C2725.18 397.321 2741.66 393.857 2756.78 399.421Z" fill="white"/>
<path d="M2961.31 325.401C2940.94 326.661 2931.91 331.281 2928.76 341.885C2927.39 346.4 2927.18 374.118 2927.18 550.19V753.245L2930.44 756.289C2941.88 766.999 2984.19 766.579 2995.11 755.659L2998.58 752.195V671.456V590.822L3027.77 590.717C3059.05 590.717 3068.19 589.877 3082.57 585.467C3094.75 581.687 3102.84 577.593 3113.33 569.718C3135.7 552.919 3149.56 529.191 3155.23 498.008C3158.48 480.265 3158.48 439.843 3155.23 422.309C3147.46 379.892 3125.93 348.605 3094.75 334.116C3083.73 328.971 3073.86 326.871 3055.8 325.611C3042.36 324.771 2973.59 324.561 2961.31 325.401ZM3064.51 397.531C3071.34 399.736 3079 406.35 3081.63 412.44C3085.62 421.259 3086.77 430.918 3086.77 454.332C3086.77 479.425 3085.62 487.719 3080.47 498.743C3075.96 508.403 3071.86 513.127 3064.93 516.487L3058.95 519.427L3028.82 519.742L2998.58 520.162V457.481V394.801L3028.82 395.221C3053.7 395.641 3059.89 396.061 3064.51 397.531Z" fill="white"/>
<path d="M1773.43 327.711C1765.66 330.021 1759.15 334.326 1755.68 339.365C1750.43 347.03 1750.01 345.875 1794.21 451.287L1834.22 547.04V650.562V754.085L1838.42 757.13C1844.51 761.539 1855.53 763.954 1869.39 763.954C1887.55 763.954 1900.78 759.754 1904.25 753.035C1905.3 750.935 1905.61 727.942 1905.61 647.203V543.995L1920.41 507.563C1928.5 487.51 1946.35 444.148 1960 411.285C1978.27 366.978 1984.67 350.285 1984.67 347.135C1984.67 338.84 1978.27 332.436 1965.98 328.551C1960 326.661 1956.22 326.241 1945.51 326.241C1934.17 326.346 1931.65 326.661 1926.92 328.761C1923.98 330.021 1920.83 331.911 1919.99 332.856C1919.15 333.906 1916 341.15 1913.06 349.13C1910.13 357.004 1901.52 379.472 1893.96 399.001C1877.05 442.573 1872.43 454.437 1870.96 458.532L1869.7 461.681L1868.44 459.057C1867.71 457.587 1856.79 429.974 1844.19 397.636C1831.59 365.299 1820.15 337.266 1818.68 335.271C1817.21 333.276 1813.53 330.546 1810.17 329.076C1805.03 326.661 1802.72 326.241 1792.22 326.031C1782.87 325.821 1778.57 326.241 1773.43 327.711Z" fill="white"/>
<path d="M2350.25 327.186C2343.32 328.971 2336.39 332.541 2335.03 335.061C2334.29 336.426 2333.98 404.041 2333.98 545.15V753.245L2337.23 756.29C2348.36 766.684 2389.83 766.684 2401.49 756.185L2404.85 753.245L2405.16 667.571L2405.37 581.898H2445.79H2486.22V667.571V753.245L2489.37 756.185C2500.07 766.159 2540.08 766.789 2553.41 757.13L2557.61 754.085V545.57C2557.61 404.146 2557.3 336.426 2556.56 335.061C2555.09 332.436 2548.06 328.866 2540.81 327.186C2532.94 325.296 2511.52 325.401 2503.22 327.291C2495.24 329.181 2488.74 332.331 2487.27 335.061C2486.53 336.426 2486.22 366.348 2486.22 424.304V511.553H2445.79H2405.37L2405.16 423.779L2404.85 336.006L2401.49 333.066C2395.92 328.131 2388.99 326.556 2371.25 326.136C2360.85 325.926 2353.72 326.346 2350.25 327.186Z" fill="white"/>
</svg>
