<?xml version="1.0" standalone="no"?>
<!DOCTYPE svg PUBLIC "-//W3C//DTD SVG 20010904//EN"
 "http://www.w3.org/TR/2001/REC-SVG-20010904/DTD/svg10.dtd">
<svg version="1.0" xmlns="http://www.w3.org/2000/svg"
 width="3163.000000pt" height="1186.000000pt" viewBox="0 0 3163.000000 1186.000000"
 preserveAspectRatio="xMidYMid meet">

<g transform="translate(0.000000,1186.000000) scale(0.100000,-0.100000)"
fill="#000000" stroke="none">
<path d="M1362 11110 c-126 -33 -225 -92 -327 -195 -101 -101 -153 -182 -192
-300 -26 -78 -27 -87 -33 -395 l-5 -315 -37 -3 -38 -3 0 -280 0 -279 40 0 40
0 0 -175 0 -175 -35 0 -35 0 0 -430 0 -430 35 0 35 0 0 -70 0 -70 -40 0 -40 0
0 -430 0 -430 40 0 40 0 2 -2702 c3 -2549 4 -2706 21 -2763 72 -247 273 -448
522 -521 55 -17 136 -18 1037 -21 l978 -4 2 -199 3 -198 249 139 c153 86 253
136 260 131 6 -5 72 -58 146 -118 74 -61 146 -118 160 -127 23 -16 146 -17
1747 -17 l1723 0 0 2340 0 2340 -400 0 -400 0 0 179 c0 187 -11 335 -35 461
-95 507 -412 898 -810 1000 -82 21 -253 29 -328 15 l-37 -7 0 561 0 561 40 0
40 0 0 379 0 380 -37 3 -38 3 -5 800 c-5 740 -7 804 -24 855 -69 209 -239 396
-433 478 -128 54 -34 52 -1968 51 -1727 0 -1793 -1 -1863 -19z m3693 -165 c95
-25 173 -73 256 -155 51 -51 86 -97 107 -141 66 -135 62 -12 62 -1881 0 -964
-4 -1698 -9 -1698 -5 0 -23 3 -40 6 l-31 6 -2 1422 -3 1421 -2162 3 -2163 2 0
-3800 0 -3800 1150 0 1150 0 0 -96 c0 -88 -2 -96 -17 -89 -38 15 -126 21 -183
13 -142 -19 -268 -133 -309 -281 -20 -72 -11 -200 20 -261 51 -103 152 -187
262 -216 47 -13 174 -10 210 5 15 6 17 0 17 -54 l0 -61 -929 0 c-772 0 -942 2
-1005 15 -165 31 -321 152 -395 308 -22 45 -44 109 -50 141 -8 42 -11 1356
-11 4375 0 3707 2 4326 15 4384 41 194 216 380 406 431 84 23 3567 23 3654 1z
m165 -2543 l0 -1348 -49 -13 c-130 -33 -275 -123 -402 -250 -144 -143 -247
-312 -314 -514 -66 -200 -85 -342 -85 -644 l0 -223 -500 0 -500 0 0 -1455 0
-1455 -1065 0 -1065 0 0 3625 0 3625 1990 0 1990 0 0 -1348z m813 -1533 c98
-32 195 -95 288 -188 138 -138 227 -290 293 -501 52 -167 66 -273 73 -537 l6
-233 -127 0 -126 0 0 194 c0 304 -22 470 -87 665 -69 207 -175 383 -317 527
-51 52 -86 94 -79 94 7 0 42 -9 76 -21z m-865 -108 c-158 -170 -274 -401 -332
-663 -34 -153 -46 -285 -46 -504 l0 -184 -126 0 -126 0 5 263 c6 285 15 357
68 524 100 316 302 561 539 656 l65 26 3 -30 c3 -24 -6 -40 -50 -88z m587 42
c161 -94 320 -288 404 -494 80 -197 101 -324 108 -646 l6 -253 -312 0 -311 0
0 720 c0 576 3 720 13 720 7 0 48 -21 92 -47z m-275 -698 l0 -695 -40 0 -40 0
0 670 0 669 37 26 c21 14 39 25 40 25 2 0 3 -313 3 -695z m-260 -120 l0 -575
-131 0 -132 0 6 238 c3 146 11 273 21 332 19 111 66 268 107 360 27 59 119
220 126 220 2 0 3 -259 3 -575z m-1010 -2892 c0 -2043 -1 -2145 -17 -2131 -10
8 -81 66 -158 129 l-140 115 -165 -93 c-91 -51 -171 -93 -179 -93 -11 0 -13
15 -7 77 3 42 6 991 6 2110 l0 2033 330 0 330 0 0 -2147z m2478 1935 l2 -207
-29 -15 c-41 -22 -96 -89 -109 -135 -55 -183 93 -353 270 -310 70 16 148 92
167 162 28 98 -11 211 -89 265 l-39 27 -1 213 0 212 315 0 315 0 0 -2165 0
-2165 -1550 0 -1550 0 0 2160 0 2160 200 0 200 0 0 -209 0 -210 -53 -53 c-62
-62 -83 -119 -74 -198 15 -125 109 -210 231 -210 228 1 311 315 116 441 l-50
32 0 203 0 204 218 3 c119 1 507 2 862 2 l645 0 3 -207z m122 -388 c27 -27 25
-66 -5 -95 -29 -30 -35 -31 -69 -4 -46 36 -23 119 34 119 11 0 29 -9 40 -20z
m-1878 -7 c37 -33 11 -113 -38 -113 -30 0 -64 33 -64 63 0 57 61 87 102 50z
m-1585 -2668 c23 -15 23 -19 23 -189 l0 -174 -49 -21 c-92 -39 -185 -20 -248
52 -41 47 -56 96 -51 167 9 127 125 212 257 188 25 -4 55 -15 68 -23z"/>
<path d="M2495 10531 c-52 -31 -68 -57 -68 -105 0 -52 21 -89 66 -116 83 -51
207 12 207 105 0 102 -120 169 -205 116z"/>
<path d="M2904 10500 c-34 -13 -64 -59 -64 -97 0 -26 8 -42 31 -64 l31 -29
330 0 330 0 29 29 c57 57 28 149 -52 165 -47 9 -611 6 -635 -4z"/>
<path d="M10128 8029 c-252 -29 -487 -139 -654 -306 -159 -158 -261 -369 -294
-608 -16 -117 -8 -2329 9 -2405 67 -298 202 -508 424 -659 84 -57 234 -122
355 -152 216 -56 490 -51 674 12 340 115 560 410 622 832 9 58 16 144 16 192
0 84 -1 88 -31 116 -52 49 -123 64 -294 64 -177 0 -248 -16 -302 -70 -31 -31
-33 -37 -33 -107 0 -277 -107 -398 -353 -401 -234 -3 -360 104 -403 341 -20
116 -20 2057 1 2155 28 133 108 243 209 289 45 20 67 23 181 23 115 0 136 -3
182 -24 71 -31 137 -104 158 -172 9 -30 19 -103 22 -163 6 -101 8 -111 34
-140 32 -37 97 -60 214 -77 143 -20 341 18 395 76 22 24 23 28 17 152 -17 380
-147 676 -371 848 -139 106 -302 166 -505 185 -120 11 -164 11 -273 -1z"/>
<path d="M12739 8030 c-210 -24 -392 -97 -525 -209 -187 -157 -306 -408 -324
-686 -12 -174 -12 -1179 0 -1911 l10 -592 34 -105 c93 -284 251 -472 490 -582
138 -64 207 -77 451 -82 251 -6 344 5 490 58 162 59 330 193 423 338 47 74 94
178 126 280 26 82 27 91 36 500 5 229 10 802 10 1273 0 936 2 905 -60 1089
-113 339 -333 537 -675 610 -105 22 -369 33 -486 19z m318 -702 c115 -42 201
-160 228 -314 22 -121 22 -2004 0 -2127 -29 -165 -99 -269 -218 -323 -53 -24
-75 -28 -147 -28 -72 0 -94 4 -147 28 -74 34 -144 104 -174 173 -56 130 -54
91 -54 1213 0 1116 -1 1083 53 1200 80 172 272 247 459 178z"/>
<path d="M14842 8028 c-62 -30 -97 -148 -96 -328 0 -156 19 -242 67 -297 l29
-33 544 0 c299 0 544 -2 544 -5 0 -3 -300 -679 -667 -1503 -366 -823 -675
-1524 -685 -1557 -54 -167 19 -332 181 -409 l66 -31 854 -3 854 -3 23 22 c92
87 110 422 31 576 -35 66 -7 63 -595 63 -504 0 -534 1 -529 18 2 9 302 687
666 1506 364 819 668 1509 677 1535 22 62 22 164 0 229 -37 110 -155 200 -293
222 -85 14 -1642 12 -1671 -2z"/>
<path d="M21070 8034 c-219 -37 -363 -98 -492 -208 -216 -184 -328 -467 -328
-829 0 -152 14 -239 61 -382 100 -299 249 -500 659 -884 328 -308 437 -431
517 -586 54 -105 73 -173 73 -261 0 -83 -26 -166 -67 -215 -37 -43 -131 -105
-192 -125 -63 -20 -141 -15 -197 14 -81 41 -174 168 -189 258 -13 77 -26 103
-61 125 -112 69 -392 77 -531 14 -76 -34 -87 -57 -79 -163 12 -150 26 -214 68
-310 96 -220 249 -388 463 -507 177 -100 443 -140 642 -99 134 27 302 103 414
185 301 222 453 593 394 964 -43 274 -138 483 -334 735 -74 95 -235 260 -514
524 -209 199 -299 305 -369 433 -65 120 -91 223 -86 334 8 178 101 281 279
310 133 23 258 -21 298 -104 12 -24 21 -53 21 -64 0 -34 49 -72 124 -96 60
-19 93 -22 216 -22 153 1 220 14 288 55 45 27 52 52 41 147 -34 302 -236 577
-509 693 -123 52 -183 62 -390 65 -107 2 -206 2 -220 -1z"/>
<path d="M26669 8029 c-205 -21 -392 -95 -524 -206 -181 -153 -303 -403 -325
-668 -12 -143 -12 -1300 0 -1988 l10 -538 35 -106 c46 -138 100 -240 179 -338
110 -139 266 -240 446 -291 86 -24 115 -27 315 -31 172 -4 240 -2 311 11 250
43 457 173 591 371 58 87 90 154 129 273 l34 105 11 511 c5 281 9 864 7 1296
l-3 785 -27 98 c-57 205 -126 333 -248 457 -155 158 -324 232 -589 259 -116
12 -239 12 -352 0z m318 -701 c103 -38 184 -136 220 -269 17 -59 18 -141 18
-1104 0 -777 -3 -1053 -12 -1091 -37 -155 -104 -249 -215 -300 -54 -24 -76
-28 -148 -28 -72 0 -94 4 -148 28 -78 36 -152 114 -180 189 -48 127 -47 110
-47 1207 0 972 1 1039 18 1099 24 86 50 134 99 187 94 102 251 135 395 82z"/>
<path d="M28935 8033 c-194 -12 -280 -56 -310 -157 -13 -43 -15 -307 -15
-1984 l0 -1934 31 -29 c109 -102 512 -98 616 6 l33 33 0 769 0 768 278 1 c298
0 385 8 522 50 116 36 193 75 293 150 213 160 345 386 399 683 31 169 31 554
0 721 -74 404 -279 702 -576 840 -105 49 -199 69 -371 81 -128 8 -783 10 -900
2z m983 -687 c65 -21 138 -84 163 -142 38 -84 49 -176 49 -399 0 -239 -11
-318 -60 -423 -43 -92 -82 -137 -148 -169 l-57 -28 -287 -3 -288 -4 0 597 0
597 288 -4 c237 -4 296 -8 340 -22z"/>
<path d="M17621 8011 c-74 -22 -136 -63 -169 -111 -50 -73 -54 -62 367 -1066
l381 -912 0 -986 0 -986 40 -29 c58 -42 163 -65 295 -65 173 0 299 40 332 104
10 20 13 239 13 1008 l0 983 141 347 c77 191 247 604 377 917 174 422 235 581
235 611 0 79 -61 140 -178 177 -57 18 -93 22 -195 22 -108 -1 -132 -4 -177
-24 -28 -12 -58 -30 -66 -39 -8 -10 -38 -79 -66 -155 -28 -75 -110 -289 -182
-475 -161 -415 -205 -528 -219 -567 l-12 -30 -12 25 c-7 14 -111 277 -231 585
-120 308 -229 575 -243 594 -14 19 -49 45 -81 59 -49 23 -71 27 -171 29 -89 2
-130 -2 -179 -16z"/>
<path d="M23115 8016 c-66 -17 -132 -51 -145 -75 -7 -13 -10 -657 -10 -2001
l0 -1982 31 -29 c106 -99 501 -99 612 1 l32 28 3 816 2 816 385 0 385 0 0
-816 0 -816 30 -28 c102 -95 483 -101 610 -9 l40 29 0 1986 c0 1347 -3 1992
-10 2005 -14 25 -81 59 -150 75 -75 18 -279 17 -358 -1 -76 -18 -138 -48 -152
-74 -7 -13 -10 -298 -10 -850 l0 -831 -385 0 -385 0 -2 836 -3 836 -32 28
c-53 47 -119 62 -288 66 -99 2 -167 -2 -200 -10z"/>
</g>
</svg>
